<svg width="473" height="46" viewBox="0 0 473 46" fill="none" xmlns="http://www.w3.org/2000/svg">
<path d="M63.12 15.47L49.62 59H41.49L32.58 30.53C32.44 30.13 32.3 29.69 32.16 29.21C32.02 28.73 31.89 28.22 31.77 27.68C31.65 28.22 31.52 28.73 31.38 29.21C31.24 29.69 31.1 30.13 30.96 30.53L21.96 59H13.8L0.33 15.47H7.89C8.67 15.47 9.32 15.65 9.84 16.01C10.38 16.37 10.73 16.85 10.89 17.45L17.64 41.99C17.8 42.67 17.96 43.41 18.12 44.21C18.3 44.99 18.47 45.82 18.63 46.7C18.81 45.8 19 44.96 19.2 44.18C19.4 43.4 19.62 42.67 19.86 41.99L27.72 17.45C27.88 16.95 28.22 16.5 28.74 16.1C29.28 15.68 29.93 15.47 30.69 15.47H33.33C34.11 15.47 34.74 15.66 35.22 16.04C35.72 16.4 36.09 16.87 36.33 17.45L44.16 41.99C44.4 42.63 44.62 43.33 44.82 44.09C45.02 44.83 45.21 45.62 45.39 46.46C45.55 45.62 45.7 44.83 45.84 44.09C46 43.33 46.16 42.63 46.32 41.99L53.07 17.45C53.21 16.93 53.55 16.47 54.09 16.07C54.63 15.67 55.28 15.47 56.04 15.47H63.12ZM77.0184 27.59C79.3384 27.59 81.4484 27.96 83.3484 28.7C85.2484 29.44 86.8784 30.5 88.2384 31.88C89.5984 33.24 90.6484 34.9 91.3884 36.86C92.1284 38.82 92.4984 41.03 92.4984 43.49C92.4984 45.95 92.1284 48.17 91.3884 50.15C90.6484 52.11 89.5984 53.78 88.2384 55.16C86.8784 56.54 85.2484 57.6 83.3484 58.34C81.4484 59.08 79.3384 59.45 77.0184 59.45C74.6784 59.45 72.5484 59.08 70.6284 58.34C68.7284 57.6 67.0984 56.54 65.7384 55.16C64.3784 53.78 63.3184 52.11 62.5584 50.15C61.8184 48.17 61.4484 45.95 61.4484 43.49C61.4484 41.03 61.8184 38.82 62.5584 36.86C63.3184 34.9 64.3784 33.24 65.7384 31.88C67.0984 30.5 68.7284 29.44 70.6284 28.7C72.5484 27.96 74.6784 27.59 77.0184 27.59ZM77.0184 53.24C79.3784 53.24 81.1284 52.43 82.2684 50.81C83.4084 49.17 83.9784 46.74 83.9784 43.52C83.9784 40.32 83.4084 37.91 82.2684 36.29C81.1284 34.65 79.3784 33.83 77.0184 33.83C74.5984 33.83 72.8184 34.65 71.6784 36.29C70.5384 37.91 69.9684 40.32 69.9684 43.52C69.9684 46.74 70.5384 49.17 71.6784 50.81C72.8184 52.43 74.5984 53.24 77.0184 53.24ZM105.467 33.17C106.447 31.41 107.577 30.02 108.857 29C110.137 27.98 111.637 27.47 113.357 27.47C114.757 27.47 115.897 27.8 116.777 28.46L116.237 34.58C116.137 34.98 115.977 35.26 115.757 35.42C115.557 35.56 115.277 35.63 114.917 35.63C114.597 35.63 114.137 35.59 113.537 35.51C112.937 35.41 112.377 35.36 111.857 35.36C111.097 35.36 110.417 35.47 109.817 35.69C109.237 35.91 108.717 36.22 108.257 36.62C107.797 37.02 107.377 37.51 106.997 38.09C106.637 38.67 106.297 39.33 105.977 40.07V59H97.6973V28.07H102.587C103.427 28.07 104.007 28.22 104.327 28.52C104.647 28.82 104.877 29.34 105.017 30.08L105.467 33.17ZM138.78 36.11C138 35.21 137.15 34.58 136.23 34.22C135.33 33.86 134.37 33.68 133.35 33.68C132.35 33.68 131.44 33.87 130.62 34.25C129.8 34.63 129.09 35.23 128.49 36.05C127.91 36.85 127.46 37.88 127.14 39.14C126.82 40.4 126.66 41.9 126.66 43.64C126.66 45.36 126.79 46.82 127.05 48.02C127.31 49.22 127.68 50.19 128.16 50.93C128.66 51.67 129.26 52.21 129.96 52.55C130.66 52.87 131.44 53.03 132.3 53.03C133.76 53.03 134.98 52.74 135.96 52.16C136.96 51.58 137.9 50.76 138.78 49.7V36.11ZM147.06 14.27V59H141.96C140.9 59 140.22 58.52 139.92 57.56L139.23 54.86C138.61 55.54 137.95 56.16 137.25 56.72C136.57 57.28 135.83 57.77 135.03 58.19C134.23 58.59 133.37 58.9 132.45 59.12C131.53 59.34 130.53 59.45 129.45 59.45C127.79 59.45 126.27 59.1 124.89 58.4C123.51 57.7 122.31 56.68 121.29 55.34C120.29 53.98 119.51 52.32 118.95 50.36C118.39 48.4 118.11 46.16 118.11 43.64C118.11 41.34 118.42 39.2 119.04 37.22C119.68 35.24 120.58 33.53 121.74 32.09C122.9 30.65 124.3 29.52 125.94 28.7C127.58 27.88 129.4 27.47 131.4 27.47C133.08 27.47 134.49 27.72 135.63 28.22C136.79 28.72 137.84 29.4 138.78 30.26V14.27H147.06ZM190.255 42.47L185.545 29.15C185.265 28.45 184.965 27.63 184.645 26.69C184.345 25.75 184.055 24.73 183.775 23.63C183.495 24.75 183.195 25.79 182.875 26.75C182.575 27.69 182.285 28.51 182.005 29.21L177.325 42.47H190.255ZM205.375 59H198.385C197.605 59 196.965 58.82 196.465 58.46C195.985 58.08 195.625 57.6 195.385 57.02L192.445 48.71H175.105L172.165 57.02C171.965 57.52 171.615 57.98 171.115 58.4C170.615 58.8 169.985 59 169.225 59H162.175L179.185 15.47H188.395L205.375 59ZM227.494 34.43C227.274 34.77 227.044 35.02 226.804 35.18C226.584 35.32 226.274 35.39 225.874 35.39C225.474 35.39 225.064 35.29 224.644 35.09C224.224 34.89 223.754 34.68 223.234 34.46C222.714 34.22 222.114 34 221.434 33.8C220.774 33.6 220.004 33.5 219.124 33.5C217.784 33.5 216.744 33.78 216.004 34.34C215.264 34.88 214.894 35.6 214.894 36.5C214.894 37.12 215.104 37.64 215.524 38.06C215.944 38.48 216.494 38.85 217.174 39.17C217.874 39.47 218.664 39.76 219.544 40.04C220.424 40.3 221.324 40.59 222.244 40.91C223.184 41.23 224.094 41.6 224.974 42.02C225.854 42.44 226.634 42.97 227.314 43.61C228.014 44.23 228.574 44.99 228.994 45.89C229.414 46.77 229.624 47.84 229.624 49.1C229.624 50.6 229.344 51.99 228.784 53.27C228.244 54.53 227.444 55.62 226.384 56.54C225.324 57.46 224.004 58.18 222.424 58.7C220.844 59.22 219.024 59.48 216.964 59.48C215.904 59.48 214.854 59.38 213.814 59.18C212.774 59 211.784 58.74 210.844 58.4C209.904 58.04 209.024 57.63 208.204 57.17C207.384 56.71 206.674 56.21 206.074 55.67L207.994 52.58C208.214 52.22 208.484 51.94 208.804 51.74C209.144 51.54 209.574 51.44 210.094 51.44C210.594 51.44 211.054 51.57 211.474 51.83C211.894 52.07 212.364 52.34 212.884 52.64C213.404 52.92 214.014 53.19 214.714 53.45C215.434 53.69 216.324 53.81 217.384 53.81C218.184 53.81 218.874 53.72 219.454 53.54C220.034 53.36 220.504 53.12 220.864 52.82C221.224 52.5 221.484 52.15 221.644 51.77C221.824 51.37 221.914 50.96 221.914 50.54C221.914 49.86 221.694 49.31 221.254 48.89C220.834 48.45 220.274 48.07 219.574 47.75C218.894 47.43 218.104 47.14 217.204 46.88C216.304 46.62 215.384 46.33 214.444 46.01C213.524 45.69 212.614 45.31 211.714 44.87C210.834 44.43 210.044 43.88 209.344 43.22C208.664 42.54 208.104 41.71 207.664 40.73C207.244 39.75 207.034 38.56 207.034 37.16C207.034 35.88 207.284 34.67 207.784 33.53C208.284 32.37 209.034 31.35 210.034 30.47C211.034 29.59 212.274 28.89 213.754 28.37C215.254 27.85 216.984 27.59 218.944 27.59C221.144 27.59 223.144 27.95 224.944 28.67C226.744 29.39 228.224 30.33 229.384 31.49L227.494 34.43ZM254.037 34.43C253.817 34.77 253.587 35.02 253.347 35.18C253.127 35.32 252.817 35.39 252.417 35.39C252.017 35.39 251.607 35.29 251.187 35.09C250.767 34.89 250.297 34.68 249.777 34.46C249.257 34.22 248.657 34 247.977 33.8C247.317 33.6 246.547 33.5 245.667 33.5C244.327 33.5 243.287 33.78 242.547 34.34C241.807 34.88 241.437 35.6 241.437 36.5C241.437 37.12 241.647 37.64 242.067 38.06C242.487 38.48 243.037 38.85 243.717 39.17C244.417 39.47 245.207 39.76 246.087 40.04C246.967 40.3 247.867 40.59 248.787 40.91C249.727 41.23 250.637 41.6 251.517 42.02C252.397 42.44 253.177 42.97 253.857 43.61C254.557 44.23 255.117 44.99 255.537 45.89C255.957 46.77 256.167 47.84 256.167 49.1C256.167 50.6 255.887 51.99 255.327 53.27C254.787 54.53 253.987 55.62 252.927 56.54C251.867 57.46 250.547 58.18 248.967 58.7C247.387 59.22 245.567 59.48 243.507 59.48C242.447 59.48 241.397 59.38 240.357 59.18C239.317 59 238.327 58.74 237.387 58.4C236.447 58.04 235.567 57.63 234.747 57.17C233.927 56.71 233.217 56.21 232.617 55.67L234.537 52.58C234.757 52.22 235.027 51.94 235.347 51.74C235.687 51.54 236.117 51.44 236.637 51.44C237.137 51.44 237.597 51.57 238.017 51.83C238.437 52.07 238.907 52.34 239.427 52.64C239.947 52.92 240.557 53.19 241.257 53.45C241.977 53.69 242.867 53.81 243.927 53.81C244.727 53.81 245.417 53.72 245.997 53.54C246.577 53.36 247.047 53.12 247.407 52.82C247.767 52.5 248.027 52.15 248.187 51.77C248.367 51.37 248.457 50.96 248.457 50.54C248.457 49.86 248.237 49.31 247.797 48.89C247.377 48.45 246.817 48.07 246.117 47.75C245.437 47.43 244.647 47.14 243.747 46.88C242.847 46.62 241.927 46.33 240.987 46.01C240.067 45.69 239.157 45.31 238.257 44.87C237.377 44.43 236.587 43.88 235.887 43.22C235.207 42.54 234.647 41.71 234.207 40.73C233.787 39.75 233.577 38.56 233.577 37.16C233.577 35.88 233.827 34.67 234.327 33.53C234.827 32.37 235.577 31.35 236.577 30.47C237.577 29.59 238.817 28.89 240.297 28.37C241.797 27.85 243.527 27.59 245.487 27.59C247.687 27.59 249.687 27.95 251.487 28.67C253.287 29.39 254.767 30.33 255.927 31.49L254.037 34.43ZM275.3 27.59C277.62 27.59 279.73 27.96 281.63 28.7C283.53 29.44 285.16 30.5 286.52 31.88C287.88 33.24 288.93 34.9 289.67 36.86C290.41 38.82 290.78 41.03 290.78 43.49C290.78 45.95 290.41 48.17 289.67 50.15C288.93 52.11 287.88 53.78 286.52 55.16C285.16 56.54 283.53 57.6 281.63 58.34C279.73 59.08 277.62 59.45 275.3 59.45C272.96 59.45 270.83 59.08 268.91 58.34C267.01 57.6 265.38 56.54 264.02 55.16C262.66 53.78 261.6 52.11 260.84 50.15C260.1 48.17 259.73 45.95 259.73 43.49C259.73 41.03 260.1 38.82 260.84 36.86C261.6 34.9 262.66 33.24 264.02 31.88C265.38 30.5 267.01 29.44 268.91 28.7C270.83 27.96 272.96 27.59 275.3 27.59ZM275.3 53.24C277.66 53.24 279.41 52.43 280.55 50.81C281.69 49.17 282.26 46.74 282.26 43.52C282.26 40.32 281.69 37.91 280.55 36.29C279.41 34.65 277.66 33.83 275.3 33.83C272.88 33.83 271.1 34.65 269.96 36.29C268.82 37.91 268.25 40.32 268.25 43.52C268.25 46.74 268.82 49.17 269.96 50.81C271.1 52.43 272.88 53.24 275.3 53.24ZM318.419 34.97C318.179 35.29 317.939 35.54 317.699 35.72C317.459 35.88 317.119 35.96 316.679 35.96C316.279 35.96 315.889 35.85 315.509 35.63C315.149 35.39 314.729 35.14 314.249 34.88C313.769 34.6 313.199 34.35 312.539 34.13C311.879 33.89 311.059 33.77 310.079 33.77C308.839 33.77 307.759 34 306.839 34.46C305.939 34.9 305.189 35.54 304.589 36.38C303.989 37.22 303.539 38.24 303.239 39.44C302.959 40.64 302.819 41.99 302.819 43.49C302.819 46.65 303.449 49.07 304.709 50.75C305.989 52.43 307.729 53.27 309.929 53.27C310.689 53.27 311.339 53.21 311.879 53.09C312.439 52.95 312.919 52.78 313.319 52.58C313.739 52.38 314.099 52.16 314.399 51.92C314.699 51.68 314.979 51.46 315.239 51.26C315.519 51.06 315.789 50.9 316.049 50.78C316.329 50.64 316.639 50.57 316.979 50.57C317.619 50.57 318.119 50.81 318.479 51.29L320.849 54.29C319.969 55.31 319.029 56.16 318.029 56.84C317.029 57.5 315.989 58.03 314.909 58.43C313.849 58.81 312.769 59.07 311.669 59.21C310.569 59.37 309.479 59.45 308.399 59.45C306.499 59.45 304.699 59.1 302.999 58.4C301.299 57.68 299.809 56.64 298.529 55.28C297.249 53.92 296.229 52.25 295.469 50.27C294.729 48.29 294.359 46.03 294.359 43.49C294.359 41.23 294.689 39.13 295.349 37.19C296.009 35.25 296.979 33.57 298.259 32.15C299.539 30.73 301.119 29.62 302.999 28.82C304.899 28 307.089 27.59 309.569 27.59C311.929 27.59 313.999 27.97 315.779 28.73C317.559 29.49 319.159 30.59 320.579 32.03L318.419 34.97ZM333.561 28.07V59H325.281V28.07H333.561ZM334.551 19.28C334.551 19.98 334.411 20.63 334.131 21.23C333.851 21.83 333.471 22.36 332.991 22.82C332.531 23.28 331.981 23.64 331.341 23.9C330.721 24.16 330.051 24.29 329.331 24.29C328.651 24.29 328.001 24.16 327.381 23.9C326.781 23.64 326.251 23.28 325.791 22.82C325.331 22.36 324.961 21.83 324.681 21.23C324.421 20.63 324.291 19.98 324.291 19.28C324.291 18.58 324.421 17.93 324.681 17.33C324.961 16.71 325.331 16.17 325.791 15.71C326.251 15.25 326.781 14.89 327.381 14.63C328.001 14.37 328.651 14.24 329.331 14.24C330.051 14.24 330.721 14.37 331.341 14.63C331.981 14.89 332.531 15.25 332.991 15.71C333.471 16.17 333.851 16.71 334.131 17.33C334.411 17.93 334.551 18.58 334.551 19.28ZM356.797 46.07C354.777 46.17 353.097 46.35 351.757 46.61C350.417 46.85 349.347 47.17 348.547 47.57C347.767 47.97 347.207 48.43 346.867 48.95C346.547 49.45 346.387 50 346.387 50.6C346.387 51.8 346.717 52.65 347.377 53.15C348.057 53.65 348.997 53.9 350.197 53.9C351.577 53.9 352.767 53.66 353.767 53.18C354.787 52.68 355.797 51.91 356.797 50.87V46.07ZM339.937 32.36C341.757 30.72 343.767 29.5 345.967 28.7C348.167 27.88 350.547 27.47 353.107 27.47C354.947 27.47 356.587 27.77 358.027 28.37C359.487 28.97 360.717 29.81 361.717 30.89C362.737 31.95 363.517 33.22 364.057 34.7C364.597 36.18 364.867 37.8 364.867 39.56V59H361.087C360.307 59 359.707 58.89 359.287 58.67C358.887 58.45 358.557 57.99 358.297 57.29L357.637 55.31C356.857 55.99 356.097 56.59 355.357 57.11C354.637 57.63 353.887 58.07 353.107 58.43C352.327 58.77 351.487 59.03 350.587 59.21C349.707 59.39 348.717 59.48 347.617 59.48C346.257 59.48 345.017 59.3 343.897 58.94C342.777 58.58 341.807 58.05 340.987 57.35C340.187 56.63 339.567 55.74 339.127 54.68C338.687 53.62 338.467 52.4 338.467 51.02C338.467 49.88 338.757 48.74 339.337 47.6C339.917 46.46 340.907 45.43 342.307 44.51C343.727 43.57 345.607 42.8 347.947 42.2C350.307 41.58 353.257 41.23 356.797 41.15V39.56C356.797 37.62 356.387 36.2 355.567 35.3C354.747 34.38 353.567 33.92 352.027 33.92C350.887 33.92 349.937 34.06 349.177 34.34C348.417 34.6 347.747 34.89 347.167 35.21C346.607 35.51 346.077 35.8 345.577 36.08C345.077 36.34 344.497 36.47 343.837 36.47C343.257 36.47 342.767 36.33 342.367 36.05C341.987 35.75 341.667 35.4 341.407 35L339.937 32.36ZM403.081 59H394.831V34.01H381.121V50.15C381.121 51.01 381.321 51.69 381.721 52.19C382.141 52.69 382.731 52.94 383.491 52.94C383.891 52.94 384.231 52.9 384.511 52.82C384.791 52.72 385.031 52.62 385.231 52.52C385.431 52.4 385.611 52.3 385.771 52.22C385.951 52.12 386.131 52.07 386.311 52.07C386.551 52.07 386.751 52.13 386.911 52.25C387.071 52.35 387.231 52.53 387.391 52.79L389.881 56.75C388.741 57.65 387.451 58.33 386.011 58.79C384.571 59.25 383.081 59.48 381.541 59.48C380.141 59.48 378.901 59.28 377.821 58.88C376.741 58.46 375.831 57.87 375.091 57.11C374.351 56.35 373.791 55.43 373.411 54.35C373.031 53.27 372.841 52.05 372.841 50.69V34.01H369.931C369.491 34.01 369.111 33.87 368.791 33.59C368.491 33.31 368.341 32.89 368.341 32.33V29.09L373.291 28.19L374.971 20.18C375.191 19.28 375.801 18.83 376.801 18.83H381.121V28.25H403.081V59ZM404.371 19.22C404.371 19.9 404.231 20.55 403.951 21.17C403.671 21.77 403.291 22.3 402.811 22.76C402.351 23.2 401.801 23.56 401.161 23.84C400.541 24.1 399.871 24.23 399.151 24.23C398.471 24.23 397.821 24.1 397.201 23.84C396.601 23.56 396.071 23.2 395.611 22.76C395.151 22.3 394.781 21.77 394.501 21.17C394.241 20.55 394.111 19.9 394.111 19.22C394.111 18.52 394.241 17.87 394.501 17.27C394.781 16.65 395.151 16.11 395.611 15.65C396.071 15.19 396.601 14.83 397.201 14.57C397.821 14.29 398.471 14.15 399.151 14.15C399.871 14.15 400.541 14.29 401.161 14.57C401.801 14.83 402.351 15.19 402.811 15.65C403.291 16.11 403.671 16.65 403.951 17.27C404.231 17.87 404.371 18.52 404.371 19.22ZM424.128 27.59C426.448 27.59 428.558 27.96 430.458 28.7C432.358 29.44 433.988 30.5 435.348 31.88C436.708 33.24 437.758 34.9 438.498 36.86C439.238 38.82 439.608 41.03 439.608 43.49C439.608 45.95 439.238 48.17 438.498 50.15C437.758 52.11 436.708 53.78 435.348 55.16C433.988 56.54 432.358 57.6 430.458 58.34C428.558 59.08 426.448 59.45 424.128 59.45C421.788 59.45 419.658 59.08 417.738 58.34C415.838 57.6 414.208 56.54 412.848 55.16C411.488 53.78 410.428 52.11 409.668 50.15C408.928 48.17 408.558 45.95 408.558 43.49C408.558 41.03 408.928 38.82 409.668 36.86C410.428 34.9 411.488 33.24 412.848 31.88C414.208 30.5 415.838 29.44 417.738 28.7C419.658 27.96 421.788 27.59 424.128 27.59ZM424.128 53.24C426.488 53.24 428.238 52.43 429.378 50.81C430.518 49.17 431.088 46.74 431.088 43.52C431.088 40.32 430.518 37.91 429.378 36.29C428.238 34.65 426.488 33.83 424.128 33.83C421.708 33.83 419.928 34.65 418.788 36.29C417.648 37.91 417.078 40.32 417.078 43.52C417.078 46.74 417.648 49.17 418.788 50.81C419.928 52.43 421.708 53.24 424.128 53.24ZM452.487 31.67C453.107 31.07 453.747 30.52 454.407 30.02C455.087 29.52 455.797 29.09 456.537 28.73C457.297 28.37 458.107 28.09 458.967 27.89C459.847 27.69 460.797 27.59 461.817 27.59C463.497 27.59 464.987 27.88 466.287 28.46C467.587 29.04 468.677 29.85 469.557 30.89C470.457 31.93 471.127 33.17 471.567 34.61C472.027 36.05 472.257 37.63 472.257 39.35V59H464.007V39.35C464.007 37.63 463.607 36.3 462.807 35.36C462.007 34.4 460.827 33.92 459.267 33.92C458.107 33.92 457.017 34.17 455.997 34.67C454.977 35.17 454.007 35.87 453.087 36.77V59H444.807V28.07H449.907C450.947 28.07 451.637 28.55 451.977 29.51L452.487 31.67Z" transform="translate(0 -14)" fill="black"/>
</svg>
